<?xml version="1.0" encoding="UTF-8"?>
<!DOCTYPE svg PUBLIC "-//W3C//DTD SVG 1.1//EN" "http://www.w3.org/Graphics/SVG/1.1/DTD/svg11.dtd">
<!-- Creator: CorelDRAW 2020 (64-Bit) -->
<svg xmlns="http://www.w3.org/2000/svg" xml:space="preserve" width="58.11mm" height="16.435mm" version="1.1" style="shape-rendering:geometricPrecision; text-rendering:geometricPrecision; image-rendering:optimizeQuality; fill-rule:evenodd; clip-rule:evenodd"
viewBox="0 0 5811 1643.5"
 xmlns:xlink="http://www.w3.org/1999/xlink"
 xmlns:xodm="http://www.corel.com/coreldraw/odm/2003">
 <defs>
  <style type="text/css">
   <![CDATA[
    .fil3 {fill:#5CC1D9}
    .fil0 {fill:#5DC3DA}
    .fil11 {fill:#64C4DB}
    .fil10 {fill:#67C5DB}
    .fil2 {fill:#68C5DC}
    .fil4 {fill:#8A8E8E}
    .fil5 {fill:#E4F3F7}
    .fil8 {fill:#F0F8FB}
    .fil7 {fill:#F1F9FC}
    .fil6 {fill:#F5F9FB}
    .fil9 {fill:#F6FBFD}
    .fil1 {fill:#FEFFFF}
   ]]>
  </style>
 </defs>
 <g id="Capa_x0020_1">
  <metadata id="CorelCorpID_0Corel-Layer"/>
  <g id="_3188737757184">
   <path class="fil0" d="M1170.28 911.49l-4.16 61.71c-8.57,-18.72 -7.23,-49.53 -7.23,-73.24 20.44,0 48.13,-1.73 65.52,5.88l-54.13 5.65zm-264.52 -6.93l65.65 -5.38c0.06,24.3 1.53,56.27 -6.6,74.36l-5.33 -62.79c-16.63,-0.13 -39.63,0.73 -53.72,-6.19zm79.35 -173.57c0,-78.93 -10.08,-147.06 80.13,-146.99 90.48,0.07 80.18,67.62 80.18,146.99 78.85,0 147.28,-12.43 147.06,80.92 -0.1,38.36 -12.65,61.07 -38.68,72.94 -29.73,13.56 -74.88,1.6 -107.96,7.64 -1.79,29.33 4.65,82.24 -6.45,105.91 -24.93,53.18 -121.04,54.58 -146.9,1.96 -12.92,-26.3 -5.84,-75.58 -7.81,-107.87 -31.15,-5.69 -78.21,5.08 -105.96,-6.4 -27.7,-11.46 -40.62,-37.2 -40.69,-74.16 -0.18,-94.01 65.19,-80.94 147.08,-80.94zm189.02 -9.57l-19.62 -0.92 0.01 -30.95 3.64 -57.21c10.4,23.62 1.19,56.43 8.19,78.48l58.1 3.59 -50.32 7.01zm-267.8 -6.62l57.45 -4.18c6.61,-31.24 -3.37,-54.38 9.3,-70.39l3.53 81.42c-22.56,-1.14 -53.84,1 -70.28,-6.85zm-339.6 220.61c6.71,31.61 -7.14,43.92 -37.17,46.47 6.92,67.17 -51.63,12.08 -61.86,64.8 -12.84,66.17 -40.75,41.74 -85.62,-17.29 -28.63,-37.67 -53.99,-89.73 -60.51,-150.06 -15.05,-139.41 57.78,-238.1 131.59,-288.68 29.63,-20.31 36.02,-28.04 78.86,-20.36 60.47,10.84 130.69,51.99 168.89,92.87 10.62,11.36 6.63,21.2 -0.27,39.09 -24.42,63.38 -81.25,61.97 -91.31,119.98 -7.34,42.31 13.66,56.08 21.41,84.49 8.83,32.42 -38.44,31.45 -64.01,28.69zm-60.16 -388.32c39.13,-14.08 92.21,-44.11 140.61,-37.97 11.04,11.77 14.9,17.68 25.2,26.07 13.97,11.38 18.85,10.24 35.23,18.39 10.43,31.66 10.13,69.61 4.02,102.43 -12.28,-10.41 -26.22,-28.41 -39.43,-39.08 -38.21,-30.86 -80.38,-54.5 -131.23,-62.65 -6.25,-1 -12.29,-1.25 -18.12,-2.11l-16.28 -5.08zm260.25 678.85c-134.88,0 -254.48,-23.69 -361.32,-77.25 -91.9,-46.08 -182.94,-121.87 -222.69,-219.18 -58.47,-143.13 -4.34,-278.23 83.25,-362.72 10.09,-9.74 19.12,-16.22 29.16,-25.24 17.97,-16.15 42.47,-33.57 65.32,-46.91 35.03,-20.44 106.56,-60.15 154.07,-67.55 17.8,10.96 19.78,19.76 47.13,28.41 29.32,9.27 36.32,4.27 63.85,4.1l3.98 25.14c-180.14,39.99 -404.52,203.67 -345.98,428.9 45.13,173.64 230.66,269.56 394,299.59 24.8,4.55 70.13,5.86 89.23,12.71zm568.39 -414.03c0,-173.05 -153.9,-298.91 -291.82,-352.04 -53.81,-20.73 -96.68,-30.06 -152.54,-37.66 -3.64,-0.5 -8.55,-1.23 -12.06,-2.07 -7,-1.67 -3.73,-0.5 -8.41,-2.81 214.94,-7.17 583.51,140.95 583.51,401.38 0,216.24 -229.13,336.85 -405.04,381.34 -56.49,14.29 -167.98,31.09 -228.01,24.57 241.73,0 514.37,-164.45 514.37,-395.71l0 -17zm-554.44 -301.64c-49.69,55 -169.11,15.42 -137.23,-95.81 -28.85,14.66 -58.47,23.33 -93.08,4.78 -22.87,-12.26 -44.54,-40.32 -43.91,-76.45 1.25,-71.75 81.73,-103.74 137.89,-66.16 14.7,-0.16 4.34,-4.91 15.63,5.95l18.7 33.66c3.93,11.61 9.36,47.4 -1.02,57.21 12.28,-14.78 72.47,-16.34 95.3,2.98 24.66,20.87 40.54,41.56 37.26,82.38l-6.28 25.86c-6.15,15.73 -11.04,23.98 -23.26,25.6zm-42.32 -389.99c-169.03,17.39 -305.87,83.88 -422.83,193.54 -17.13,16.05 -26.44,29.47 -42.13,46.25 -105.81,113.17 -189.87,314.62 -169.66,526.55 34.87,365.76 357.94,673.91 767.69,635.66 362.74,-33.86 673.47,-357.8 635.08,-764.62 -17.16,-181.84 -84,-299.39 -191.83,-423.02 -15.97,-18.32 -28.81,-26.47 -45.67,-42.72 -127.02,-122.38 -341.91,-191.05 -530.65,-171.64z"/>
   <path class="fil0" d="M813.73 1542.71c-263.9,0 -474.91,-127.13 -597.02,-303.77 -150.8,-218.13 -173.83,-473.45 -69.16,-715.91 16.98,-39.34 41.51,-81.09 64.01,-112.7l58.07 -74.65c6.64,-7.74 15.29,-14.27 22.54,-21.52 35.18,-35.2 48.73,-48.61 93.24,-80.15 109.3,-77.44 254.5,-134.46 397.73,-134.46 174.78,0 301.21,38.25 438.1,131.52l73.96 58.67c8.05,7.07 13.4,15.07 21.42,22.69 101.84,96.77 210.24,284.47 210.24,492.68l0 27.2c0,384.53 -326.96,710.4 -713.13,710.4zm775.92 -679.81c10.13,-109.23 -18.25,-245.11 -55.2,-336.62 -45.07,-111.61 -83.18,-159.21 -151.86,-242.47 -22.42,-27.18 -75.81,-72.93 -102.98,-94.11 -117.1,-91.27 -273.75,-150.78 -431.75,-159.6 -450.76,-25.15 -809.57,326.63 -830.83,747.8 -22.99,455.27 325.47,812.33 742.18,836.37 121.35,7 241.27,-14.93 341.57,-56.23 63.96,-26.34 190.32,-97.31 239.94,-154.51 9.61,-11.09 15.95,-13.38 25.91,-25.23 8.54,-10.17 15.99,-14.11 24.13,-23.23 5.01,-5.61 7.07,-10.11 11.63,-15.87 4.8,-6.07 6.59,-6.86 11.21,-12.4 6.87,-8.22 14.07,-17.21 20.99,-26.58 100.37,-135.96 138.78,-261.73 155.06,-437.32z"/>
   <path class="fil1" d="M1589.65 862.9c-16.28,175.59 -54.69,301.36 -155.06,437.32 -6.92,9.37 -14.12,18.36 -20.99,26.58 -4.62,5.54 -6.41,6.33 -11.21,12.4 -4.56,5.76 -6.62,10.26 -11.63,15.87 -8.14,9.12 -15.59,13.06 -24.13,23.23 -9.96,11.85 -16.3,14.14 -25.91,25.23 -49.62,57.2 -175.98,128.17 -239.94,154.51 -100.3,41.3 -220.22,63.23 -341.57,56.23 -416.71,-24.04 -765.17,-381.1 -742.18,-836.37 21.26,-421.17 380.07,-772.95 830.83,-747.8 158,8.82 314.65,68.33 431.75,159.6 27.17,21.18 80.56,66.93 102.98,94.11 68.68,83.26 106.79,130.86 151.86,242.47 36.95,91.51 65.33,227.39 55.2,336.62zm-816.71 788.58l64.58 0c108.78,0 241.41,-39.04 315.02,-75.87 118.56,-59.32 159.37,-91.75 255.18,-186.7l65.96 -80.21c83.46,-113.13 152.43,-292.85 152.43,-439 0,-136.89 -3.42,-199.1 -51.5,-329.2 -26.88,-72.76 -64.4,-140.18 -107.77,-198.15 -86.83,-116.09 -197.65,-207.27 -339.41,-269.02 -34.44,-15.01 -72.39,-27.9 -111.76,-37.8 -260.15,-65.43 -502.2,-13.06 -712.29,143.66 -8.35,6.23 -12.84,9.52 -20.78,16.62 -31.19,27.85 -50.77,41.72 -78.3,74.65 -18.36,21.95 -25.92,25.43 -51.93,60.24l-45.81 66.37c-5.21,8.7 -10.32,14.85 -15.71,25.07 -83.55,158.13 -121.69,302.65 -103.41,492.06 12.27,127.02 52.88,239.95 113.96,341.52 92.54,153.87 245.88,283.99 416.18,345.21 68.36,24.57 162.49,50.55 255.36,50.55z"/>
   <path class="fil1" d="M494.93 692.76c9.76,22.49 39.56,38.59 71.59,42.65 2.87,31.92 5.3,21.27 -1.96,27.49l-4.53 -20.2c-88.63,-26.63 -42.87,-43.31 -86.77,-40.59l-11.87 -1.13c-0.52,-1.07 -1.79,-0.8 -2.67,-1.24l16.72 -4.98c6.44,-0.83 13.03,-1.4 19.49,-2zm45.25 -33.68c2.8,-2.51 -10.57,-12.02 32.15,-6.43 24.8,3.24 53.6,14.58 60.47,39.52 -19.12,-2.17 -6.5,-34.62 -92.62,-33.09zm26.55 276.33c25.57,2.76 72.84,3.73 64.01,-28.69 -7.75,-28.41 -28.75,-42.18 -21.41,-84.49 10.06,-58.01 66.89,-56.6 91.31,-119.98 6.9,-17.89 10.89,-27.73 0.27,-39.09 -38.2,-40.88 -108.42,-82.03 -168.89,-92.87 -42.84,-7.68 -49.23,0.05 -78.86,20.36 -73.81,50.58 -146.64,149.27 -131.59,288.68 6.52,60.33 31.88,112.39 60.51,150.06 44.87,59.03 72.78,83.46 85.62,17.29 10.23,-52.72 68.78,2.37 61.86,-64.8 30.03,-2.55 43.88,-14.86 37.17,-46.47z"/>
   <path class="fil1" d="M985.11 730.99c-81.89,0 -147.26,-13.07 -147.08,80.94 0.07,36.96 12.99,62.7 40.69,74.16 27.75,11.48 74.81,0.71 105.96,6.4 1.97,32.29 -5.11,81.57 7.81,107.87 25.86,52.62 121.97,51.22 146.9,-1.96 11.1,-23.67 4.66,-76.58 6.45,-105.91 33.08,-6.04 78.23,5.92 107.96,-7.64 26.03,-11.87 38.58,-34.58 38.68,-72.94 0.22,-93.35 -68.21,-80.92 -147.06,-80.92 0,-79.37 10.3,-146.92 -80.18,-146.99 -90.21,-0.07 -80.13,68.06 -80.13,146.99z"/>
   <path class="fil1" d="M766.82 1225.94c-19.1,-6.85 -64.43,-8.16 -89.23,-12.71 -163.34,-30.03 -348.87,-125.95 -394,-299.59 -58.54,-225.23 165.84,-388.91 345.98,-428.9l-3.98 -25.14c-27.53,0.17 -34.53,5.17 -63.85,-4.1 -27.35,-8.65 -29.33,-17.45 -47.13,-28.41 -47.51,7.4 -119.04,47.11 -154.07,67.55 -22.85,13.34 -47.35,30.76 -65.32,46.91 -10.04,9.02 -19.07,15.5 -29.16,25.24 -87.59,84.49 -141.72,219.59 -83.25,362.72 39.75,97.31 130.79,173.1 222.69,219.18 106.84,53.56 226.44,77.25 361.32,77.25z"/>
   <path class="fil0" d="M3036.72 1131.42l1.01 1.02c-0.07,-0.07 -1.35,-0.68 -1.01,-1.02zm-309.32 95.18c24.81,-5.78 31.57,-3.4 61.18,-3.4l0 -258.33c0,-50.69 -3.39,-88.95 -3.39,-139.36l6.85 10.14c49.09,88.44 87.01,153.41 143.37,240.72l62.83 100.33c34.75,58.76 18.83,46.5 96.26,46.5l0 -486.07 -61.18 0 0 299.12c0,35.23 3.4,57.01 3.4,91.77l-55.86 -100.5c-21.01,-34.91 -40.02,-63.95 -61.15,-98.61l-92.33 -145.59c-37.69,-57.51 -12.36,-46.19 -99.98,-46.19l0 489.47z"/>
   <path class="fil0" d="M4664.87 784.72c38.29,0 61.05,-2.73 94.3,21.27 90.2,65.11 95.63,220.98 39.68,306.46 -60.07,91.79 -186.7,79.73 -236.71,-0.66 -47.41,-76.2 -47.2,-184.8 -1.28,-261.13 21.15,-35.16 61.51,-65.94 104.01,-65.94zm-207.35 186.95c0,73.92 10.02,129.03 57.25,187.48 26.47,32.75 85.17,70.85 143.3,70.85 84.99,0 121.57,-8.43 182.73,-68.8 35.45,-35 62,-106.17 62,-155.54 0,-70.98 -1.58,-149.07 -58.56,-206.56 -60.56,-61.09 -92.57,-68.77 -179.37,-68.77 -33.64,0 -63.7,13.1 -87.31,24.87 -25.57,12.76 -43.03,30.94 -61.45,50.72 -31.8,34.15 -58.59,100.4 -58.59,165.75z"/>
   <path class="fil1" d="M1335.21 811.91l0 17c0,231.26 -272.64,395.71 -514.37,395.71 60.03,6.52 171.52,-10.28 228.01,-24.57 175.91,-44.49 405.04,-165.1 405.04,-381.34 0,-260.43 -368.57,-408.55 -583.51,-401.38 4.68,2.31 1.41,1.14 8.41,2.81 3.51,0.84 8.42,1.57 12.06,2.07 55.86,7.6 98.73,16.93 152.54,37.66 137.92,53.13 291.82,178.99 291.82,352.04z"/>
   <path class="fil1" d="M738.45 120.28c188.74,-19.41 403.63,49.26 530.65,171.64 16.86,16.25 29.7,24.4 45.67,42.72 107.83,123.63 174.67,241.18 191.83,423.02 38.39,406.82 -272.34,730.76 -635.08,764.62 -409.75,38.25 -732.82,-269.9 -767.69,-635.66 -20.21,-211.93 63.85,-413.38 169.66,-526.55 15.69,-16.78 25,-30.2 42.13,-46.25 116.96,-109.66 253.8,-176.15 422.83,-193.54zm75.28 1422.43c386.17,0 713.13,-325.87 713.13,-710.4l0 -27.2c0,-208.21 -108.4,-395.91 -210.24,-492.68 -8.02,-7.62 -13.37,-15.62 -21.42,-22.69l-73.96 -58.67c-136.89,-93.27 -263.32,-131.52 -438.1,-131.52 -143.23,0 -288.43,57.02 -397.73,134.46 -44.51,31.54 -58.06,44.95 -93.24,80.15 -7.25,7.25 -15.9,13.78 -22.54,21.52l-58.07 74.65c-22.5,31.61 -47.03,73.36 -64.01,112.7 -104.67,242.46 -81.64,497.78 69.16,715.91 122.11,176.64 333.12,303.77 597.02,303.77z"/>
   <path class="fil0" d="M4202.59 964.87l-37.38 0 0 -176.75c40.92,-0.91 169.95,-26.22 169.95,81.58 0,78.17 -63.94,95.17 -132.57,95.17zm-101.97 -224.34l0 482.67 64.59 0 0 -210.74c73.58,0 122.3,-3.21 144.98,65.76 8.09,24.62 12.06,48.49 18.12,73.64 5.94,24.64 15.05,48.2 20.44,71.34l67.99 0c-4.8,-20.57 -14.16,-44.76 -19.74,-65.24 -6.36,-23.38 -10.29,-44.85 -16.25,-68.73 -7.71,-30.85 -19.75,-63.15 -43.11,-82.65 -4.36,-3.65 -7.33,-5.44 -12.01,-8.39l-14.27 -9.53c43.75,-10.19 88.38,-61.84 88.38,-105.37l0 -30.59c0,-73.93 -73.42,-118.97 -149.56,-118.97l-71.38 0c-31.09,0 -50.56,6.8 -78.18,6.8z"/>
   <path class="fil0" d="M2452.08 798.32c3,36.1 66.02,197.42 67.98,220.93l-139.36 0c8.68,-37.24 46.29,-134.64 61.87,-193.05l9.51 -27.88zm-203.95 424.88l67.99 0 50.5 -153.12 170.43 0.16c0.77,9.25 45.55,141.62 50.99,152.96l67.98 0c-1.43,-17.24 -13.23,-41.25 -19.12,-59.06l-62.02 -182.71c-6.96,-20.89 -13.79,-41.36 -20.4,-61.18 -12.44,-37.35 -54.64,-153.21 -61.61,-183.12l-81.58 0c-1.28,15.35 -12.91,43.8 -18.28,59.9l-144.88 426.17z"/>
   <path class="fil0" d="M3672.34 798.32c3.01,36.1 66.03,197.42 67.98,220.93l-139.36 0 71.38 -220.93zm-203.94 424.88l67.98 0 50.51 -153.12 170.43 0.16c0.77,9.25 45.54,141.62 50.98,152.96l67.98 0c-1.43,-17.24 -13.23,-41.25 -19.11,-59.06 -7.29,-22.05 -13.05,-39.17 -20.39,-61.19l-62.03 -182.7c-12.45,-37.35 -54.65,-153.21 -61.62,-183.12l-81.58 0c-1.19,14.32 -31.84,100.59 -38.67,121.09l-103.66 304.23c-6.07,18.23 -13.34,45.16 -20.82,60.75z"/>
   <path class="fil0" d="M5507.83 798.32c3.01,36.1 66.03,197.42 67.99,220.93l-139.37 0c8.68,-37.24 46.3,-134.64 61.88,-193.05l9.5 -27.88zm-203.94 424.88l67.98 0 50.51 -153.12 170.43 0.16c0.77,9.25 45.54,141.62 50.99,152.96l67.98 0c-2.08,-24.91 -147.84,-420.33 -163.16,-486.07l-81.57 0c-1.55,18.53 -88.65,267.68 -100.69,303.8 -7.36,22.06 -14.72,40.67 -21.29,60.3l-41.18 121.97z"/>
   <path class="fil0" d="M1918.43 845.9c0,42.59 -1.26,65.2 34.78,101.18 44.53,44.48 91.18,46.84 140.58,76.96 74.11,45.2 46.15,151.57 -46.2,151.57 -92.05,0 -99.94,-23.69 -125.77,-30.59 -1.66,20.02 -13.12,36.61 -13.59,57.78 47.92,11.17 24.56,27.2 149.56,27.2 65.43,0 142.76,-55.51 142.76,-125.77l0 -27.19c0,-60.39 -53.68,-101.1 -97.58,-119.97 -46.3,-19.89 -119.96,-38.82 -119.96,-100.97 0,-76.44 94.44,-80.38 145.85,-64.27 13.03,4.08 24.2,12.16 37.7,13.28l16.57 -51.12c-62.11,-33.09 -169.85,-35.69 -219.73,11.13 -21.31,20 -44.97,47.94 -44.97,80.78z"/>
   <path class="fil0" d="M4970.78 845.9c0,42.59 -1.25,65.2 34.78,101.18 61.8,61.72 182.76,59.95 182.76,143.56 0,103.57 -123.58,95.88 -191.37,65.6 -9.94,-4.43 -12.64,-8.52 -22.77,-11.22 -1.66,20.02 -13.12,36.61 -13.59,57.78 47.91,11.17 24.56,27.2 149.55,27.2 65.43,0 142.77,-55.51 142.77,-125.77l0 -27.19c0,-60.39 -53.69,-101.1 -97.58,-119.97 -46.3,-19.89 -119.96,-38.82 -119.96,-100.97 0,-76.44 94.44,-80.38 145.84,-64.27 13.04,4.08 24.21,12.16 37.7,13.28l16.58 -51.12c-75.73,-40.35 -198.86,-35.4 -248.5,43.54 -6.73,10.71 -16.21,32.24 -16.21,48.37z"/>
   <path class="fil0" d="M3145.49 781.32c0,7.83 2.36,10.2 10.19,10.2l139.37 0 0 431.68 64.58 0 0 -431.68 149.56 0 0 -54.39 -363.7 0 0 44.19z"/>
   <path class="fil0" d="M2972.13 546.79l3.91 6.62 -3.91 -6.62zm0 0l-135.96 -224.34 -44.19 0 0 244.73c-0.19,59.57 -5.34,40.79 37.39,40.79l0 -231.14 32.92 58.86c12.05,20.15 23.6,38.08 34.91,56.86 23.27,38.62 46.79,78.47 71.54,115.42l40.78 0 0 -285.52 -37.39 0 0 224.34z"/>
   <path class="fil0" d="M3828.7 359.84c1.48,17.8 33.44,113.84 40.79,129.16l-81.58 0 40.79 -129.16zm-118.97 248.13l40.79 0c1.96,-23.61 21.24,-62.81 27.19,-88.38l101.97 0c1.97,23.61 21.24,62.82 27.2,88.38l40.79 0c-1.36,-16.26 -87.37,-251.99 -95.18,-285.52l-47.59 0 -95.17 285.52z"/>
   <path class="fil0" d="M1915.03 465.21c0,82.84 51.87,146.16 125.76,146.16 84.24,0 60.52,-7.6 91.78,-10.2 -0.31,-13.72 -4.1,-22.41 -6.8,-33.99 -25.42,12.2 -46.56,10.2 -74.78,10.2 -60.18,0 -92.91,-50.9 -94.51,-109.08 -0.19,-6.79 4.11,-37.52 5.94,-44.07 10,-35.87 45.87,-71.19 85.17,-71.19 67.16,0 31.7,-0.63 78.18,10.2 1.42,-17.13 6.8,-16.43 6.8,-37.39 -17.66,-0.4 -31.56,-6.8 -84.98,-6.8 -69.15,0 -132.56,65.47 -132.56,146.16z"/>
   <path class="fil0" d="M3363.03 465.21c0,45.89 11.57,76.51 34.94,104.41 34.47,41.14 106.94,49.36 155.22,38.17 10.86,-2.52 15.54,-5.64 27.38,-6.62 -0.31,-13.72 -4.1,-22.41 -6.8,-33.99 -25.42,12.2 -46.56,10.2 -74.78,10.2 -60.18,0 -92.91,-50.9 -94.51,-109.08 -0.75,-26.93 8.3,-57.29 23.03,-77.97 28.09,-39.46 64.41,-37.29 102.07,-37.29 22.89,0 27.83,6.38 44.19,10.2 1.42,-17.13 6.8,-16.43 6.8,-37.39 -17.66,-0.4 -31.56,-6.8 -84.98,-6.8 -69.15,0 -132.56,65.47 -132.56,146.16z"/>
   <path class="fil2" d="M768.54 476.77c-26.26,54.42 -104.33,32.25 -115.01,-21.94 -6.62,-33.62 12.11,-58.44 31.61,-70.43 11.99,-7.38 27.97,-10.35 43.61,-8.2 12.79,1.76 29.54,6.62 33.03,18.97 3.28,21.77 36.47,30.74 6.76,81.6zm-120.72 -95.32c-12.49,2.6 -2.36,-0.64 -11.91,3.71 -6.26,2.85 -3.52,2.4 -10.59,6.48 -7.72,4.45 -16.11,5.39 -18.95,7.38 -80.65,21.63 -98.02,-91.6 -36.18,-119.66 74.45,-33.76 122.76,56.99 77.63,102.09zm132.95 128.82c12.22,-1.62 17.11,-9.87 23.26,-25.6l6.28 -25.86c3.28,-40.82 -12.6,-61.51 -37.26,-82.38 -22.83,-19.32 -83.02,-17.76 -95.3,-2.98 10.38,-9.81 4.95,-45.6 1.02,-57.21l-18.7 -33.66c-11.29,-10.86 -0.93,-6.11 -15.63,-5.95 -32.7,-4.67 -51.59,-25.41 -92.46,1.67 -80.12,53.1 -14.1,177.41 78.3,139.3 8.06,-3.33 14.06,-7.43 18.4,-11.96 9.02,-9.43 4.43,-9.69 16.59,-16.31 -59.21,90.01 8.27,137.91 53.76,139.3 36.15,1.1 40.41,-12.69 61.74,-18.36z"/>
   <path class="fil3" d="M2282.13 607.97l159.75 0 0 -23.8c0,-7.83 -2.36,-10.19 -10.2,-10.19l-112.17 0 0 -251.53 -37.38 0 0 285.52z"/>
   <path class="fil1" d="M522.85 552.17c5.83,0.86 11.87,1.11 18.12,2.11 50.85,8.15 93.02,31.79 131.23,62.65 13.21,10.67 27.15,28.67 39.43,39.08 6.11,-32.82 6.41,-70.77 -4.02,-102.43 -16.38,-8.15 -21.26,-7.01 -35.23,-18.39 -10.3,-8.39 -14.16,-14.3 -25.2,-26.07 -48.4,-6.14 -101.48,23.89 -140.61,37.97l16.28 5.08z"/>
   <path class="fil4" d="M2859.97 1546.11c-13.63,-28.39 6.21,-122.66 64.58,-91.78 -0.26,11.67 -3.69,22.99 -5.95,31.45 -6.28,23.6 -35.45,54.93 -58.63,60.33zm57.78 -173.35c5.15,7.4 -1.88,6.8 20.39,6.8 0,20.55 -6.79,33.82 -6.79,54.38 -26.75,0 -40.49,-1.01 -65.22,16.36l-11.02 9.38c-51.33,51.36 -39.13,171.9 55.84,62.64l-3.4 44.18c17.43,0 19.21,1.59 36.67,-14.32 8.79,-8.01 13.21,-9.78 14.32,-23.07 -10.4,2.78 -15.91,8.32 -23.8,13.6 0.32,-14.11 4.89,-32.44 7.68,-46.71l18.16 -90.61c4.14,-17.99 8.16,-25.24 8.16,-46.23 -13.9,0.31 -44.63,4.92 -50.99,13.6z"/>
   <path class="fil4" d="M5062.56 1546.11c-13.62,-28.39 6.22,-122.66 64.58,-91.78 -0.92,41.27 -31.68,84.11 -64.58,91.78zm57.78 -173.35c5.15,7.4 -1.87,6.8 20.4,6.8 0,20.55 -6.8,33.82 -6.8,54.38 -28.82,0 -50.33,1.02 -74.53,24.05 -0.5,0.48 -1.21,1.19 -1.7,1.69 -51.33,51.36 -39.14,171.9 55.83,62.64l-3.4 44.18c17.43,0 19.21,1.59 36.67,-14.32 8.79,-8.01 13.21,-9.78 14.32,-23.07 -10.4,2.78 -15.9,8.32 -23.79,13.6 0.81,-36.46 33.99,-157.18 33.99,-183.55 -12.09,0.27 -14.69,2.37 -25.93,4.66 -17.3,3.54 -17.09,-1.94 -25.06,8.94z"/>
   <polygon class="fil3" points="3172.68,607.97 3210.07,607.97 3210.07,322.45 3172.68,322.45 "/>
   <polygon class="fil3" points="2584.64,607.97 2622.03,607.97 2622.03,322.45 2584.64,322.45 "/>
   <path class="fil5" d="M552.74 312.57l0 0zm53.63 86.45c11.86,-10.06 21.36,-12.92 27.75,-28.74 6.31,-15.6 4.72,-34.46 -3.78,-47.65 -15.61,-24.2 -53.48,-35.96 -77.6,-10.06l-10.62 7.74c14.96,-38.09 54.98,-52.08 88.95,-32.51 29.88,17.21 45.75,62.83 16.75,93.65 45.13,-45.1 -3.18,-135.85 -77.63,-102.09 -61.84,28.06 -44.47,141.29 36.18,119.66z"/>
   <path class="fil1" d="M768.54 476.77c34.45,-87.83 -129.12,-97.94 -86.18,9.83 -9.76,-5 -3.52,0.43 -10.78,-8.48 -33.81,-41.51 14.97,-128.5 90.2,-82.95 -3.49,-12.35 -20.24,-17.21 -33.03,-18.97 -15.64,-2.15 -31.62,0.82 -43.61,8.2 -19.5,11.99 -38.23,36.81 -31.61,70.43 10.68,54.19 88.75,76.36 115.01,21.94z"/>
   <path class="fil4" d="M1979.61 1423.74c15.74,-1.31 11.54,-2.33 18.19,-15.8 11.35,-23 15.33,-18.19 53.19,-18.19l-13.92 81.26c-2.56,12.95 -4.46,25.93 -7.3,40.28 -2.56,12.86 -6.47,25.78 -9.37,38.22 -17.18,4 -23.33,-0.89 -27.2,13.59l84.98 0 0 -10.19c-13.42,0 -13.79,-1.07 -23.79,-3.4 0,-34.66 23.89,-120.12 27.19,-159.76l44.19 0c5.24,10.93 6.8,17.31 6.8,33.99 18.76,-1.56 12.7,-3.9 14.07,-23.31 0.95,-13.39 2.92,-17.27 2.92,-34.47 -13.61,3.63 -11.13,10.2 -27.19,10.2l-101.97 0c-16.06,0 -13.59,-6.57 -27.2,-10.2 -3.89,16.7 -12.19,40.97 -13.59,57.78z"/>
   <path class="fil4" d="M3356.23 1471.33c9.89,-2.64 13.24,-8.01 23.79,-13.6 -5.45,23.4 -23.79,94.65 -23.79,112.17 17.08,-3.98 22.35,0.79 27.61,-13.18 7.97,-21.2 -2.03,-42.59 42.79,-86.37 4.87,-4.76 17.58,-16.65 23.36,-14.3 7.68,3.13 3.62,0.17 2.28,11.88 -4.86,42.34 -33.45,98.57 -7.67,98.57 13.08,0 30.33,-13.58 37.23,-21.33 4.63,-5.2 13.2,-10.57 0.82,-10.87 -6.39,-0.16 -8.48,5.48 -21.05,8.41 7.42,-15.47 16.99,-76.74 16.99,-98.57 0,-10.47 -4.7,-10.2 -13.59,-10.2 -15.8,0 -43.6,24.43 -50,31.58 -8.36,9.35 -2.82,8.13 -14.58,16.01 1.94,-23.39 9.05,-23.31 3.4,-47.59 -19.75,0 -18.88,2 -30.27,10.53 -11.93,8.94 -16.9,7.76 -17.32,26.86z"/>
   <path class="fil4" d="M4797.43 1471.33c9.89,-2.64 13.24,-8.01 23.79,-13.6 -5.45,23.4 -23.79,94.65 -23.79,112.17 17.08,-3.98 22.35,0.79 27.61,-13.18 7.98,-21.2 -2.02,-42.59 42.8,-86.37 4.86,-4.76 17.57,-16.65 23.35,-14.3 7.68,3.13 3.62,0.17 2.28,11.88 -4.86,42.34 -33.45,98.57 -7.66,98.57 12.75,0 59.36,-31.67 38.04,-32.2 -6.39,-0.16 -8.48,5.48 -21.05,8.41 7.42,-15.47 17,-76.74 17,-98.57 0,-10.47 -4.71,-10.2 -13.6,-10.2 -16.95,0 -25.32,11.12 -35.06,19.33 -21.17,17.84 -20.83,22.44 -29.52,28.26 1.94,-23.39 9.05,-23.31 3.4,-47.59 -22.06,0 -47.07,14.2 -47.59,37.39z"/>
   <path class="fil4" d="M2676.42 1471.33c7.89,-5.28 13.39,-10.82 23.79,-13.6 -4.64,9.68 -10.41,44.46 -13.6,57.79 -7.43,31.11 -14.49,50.98 13.6,50.98 20.65,0 50.18,-34.93 61.18,-47.58l-3.4 47.58c23.95,0 49.26,-16.55 50.99,-37.39 -10.4,2.78 -15.9,8.32 -23.79,13.6 0,-34.61 19.83,-83.74 20.39,-108.77 -21.64,0.48 -26.18,3.4 -29.97,21.02 -6.74,31.38 -7.35,41.68 -33.69,68.27 -11.59,11.69 -14,19.01 -34.91,19.48l20.39 -101.97c0,-15.23 -34.34,-2.82 -48.79,15.91 -6.5,8.42 -4.56,3.52 -2.19,14.68z"/>
   <path class="fil4" d="M2129.17 1471.33c7.89,-5.28 13.39,-10.82 23.79,-13.6 -4.64,9.68 -10.41,44.46 -13.6,57.79 -7.43,31.11 -14.49,50.98 13.6,50.98 20.65,0 50.18,-34.93 61.18,-47.58l-3.4 47.58c23.95,0 49.26,-16.55 50.99,-37.39 -10.4,2.78 -15.9,8.32 -23.79,13.6 0,-22.04 5.79,-38.52 9.34,-55.24 3.63,-17.07 10.7,-37.58 11.05,-53.53 -52.77,1.18 -7.07,32.17 -63.66,89.29 -11.59,11.69 -14,19.01 -34.91,19.48l20.39 -101.97c0,-15.23 -34.34,-2.82 -48.79,15.91 -6.5,8.42 -4.56,3.52 -2.19,14.68z"/>
   <path class="fil4" d="M3505.79 1471.33c7.89,-5.28 13.39,-10.82 23.79,-13.6 -4.64,9.68 -10.41,44.46 -13.6,57.79 -7.43,31.11 -14.49,50.98 13.6,50.98 20.65,0 50.18,-34.93 61.18,-47.58l-3.4 47.58c23.95,0 49.26,-16.55 50.99,-37.39 -10.4,2.78 -15.9,8.32 -23.79,13.6 0,-22.04 5.79,-38.52 9.34,-55.24 3.63,-17.07 10.7,-37.58 11.05,-53.53 -44.07,0.98 -21.21,26.07 -41.39,60.58 -11.6,19.84 -31.93,47.63 -57.18,48.19l20.39 -101.97c0,-15.23 -34.34,-2.82 -48.79,15.91 -6.5,8.42 -4.56,3.52 -2.19,14.68z"/>
   <path class="fil4" d="M2537.05 1518.92l1.02 1.01c-0.07,-0.07 -1.35,-0.68 -1.02,-1.01zm-47.58 27.19c-0.43,-19.1 -3.27,-11.81 -0.79,-31.11 5.43,-42.38 20.16,-74.6 65.37,-64.06 -8.37,35.92 -23.08,85.5 -64.58,95.17zm-30.59 -17c0,84.32 69.66,2.31 78.17,-3.4 -2.35,19.81 -16.62,65.91 36.09,25.87 10.48,-7.96 18.11,-12.1 11.5,-25.87 -10.73,7.19 -10.3,9.86 -23.79,17l20.39 -105.37c-73.39,-17.1 -122.36,34.75 -122.36,91.77z"/>
   <path class="fil4" d="M4138.01 1518.92l1.02 1.01c-0.07,-0.07 -1.36,-0.68 -1.02,-1.01zm-47.58 27.19c-0.48,-21.5 -4.86,-32.02 6.22,-61.76 13.67,-36.69 31.52,-39.67 58.36,-33.41 -8.37,35.92 -23.08,85.5 -64.58,95.17zm-30.6 -17c0,84.32 69.67,2.31 78.18,-3.4 -2.35,19.81 -16.62,65.91 36.09,25.87 10.48,-7.96 18.1,-12.1 11.5,-25.87 -10.73,7.19 -10.31,9.86 -23.79,17l20.39 -105.37c-73.39,-17.1 -122.37,34.75 -122.37,91.77z"/>
   <path class="fil4" d="M4464.32 1518.92c0.34,-0.34 1.01,0.53 1.02,1.01l0 0c-0.07,-0.07 -1.36,-0.68 -1.02,-1.01zm-47.58 27.19c-0.48,-21.5 -4.86,-32.02 6.22,-61.76 13.67,-36.69 31.52,-39.67 58.36,-33.41 -8.37,35.92 -23.08,85.5 -64.58,95.17zm-30.6 -17c0,84.32 69.67,2.31 78.18,-3.4 -2.35,19.81 -16.62,65.91 36.09,25.87 10.48,-7.96 18.1,-12.1 11.5,-25.87 -10.73,7.19 -10.31,9.86 -23.79,17l20.39 -105.37c-73.39,-17.1 -122.37,34.75 -122.37,91.77z"/>
   <path class="fil4" d="M4712.45 1552.91c-47.68,0 -22.52,-105.37 10.2,-105.37 45.64,0 16.9,105.37 -10.2,105.37zm-54.38 -44.19l0 16.99c0,75.63 115.57,39.02 115.57,-33.99 0,-29.55 2.45,-57.78 -44.19,-57.78 -36.29,0 -71.38,39.28 -71.38,74.78z"/>
   <path class="fil4" d="M4627.48 1440.74c-31.86,0 -66.62,-27.57 -87.94,25.12 -6.94,17.16 1.94,15.18 6.96,11.52 24.24,-17.62 -9.13,-19.65 67.38,-19.65 -15.17,22.66 -66.59,63.01 -82.84,87.12 -7.47,11.08 -5.53,3.68 -5.53,21.65 30.16,-8.05 -4.01,-21.74 46.81,-6.02 28.23,8.74 47.06,13.78 65.1,-25.21 4.9,-10.59 6.25,-3.85 0.26,-16.35 -15.69,4.18 -5.11,1.56 -14.61,12.6 -17.9,20.83 -22.88,4.39 -63.57,4.39 10.47,-15.64 31.13,-30.77 43.18,-45.19 15.37,-18.39 63.44,-62.52 42.75,-61.49 -7.97,0.4 -10.31,11.51 -17.95,11.51z"/>
   <path class="fil4" d="M5205.32 1495.12c4.59,-19.73 13.64,-47.58 37.39,-47.58 18.64,0 12.57,22.5 3.86,30.95 -7.16,6.93 -27.54,16.33 -41.25,16.63zm-30.59 30.59c0,67.84 79.43,36.97 94.75,12.31 18.71,-30.12 -20.18,8.09 -43.77,8.09 -9.18,0 -9.37,-1.62 -16.99,-3.4 -9.38,-40.23 -7.75,-31.31 27.67,-43.7 51.45,-18 61.77,-65.07 13.12,-65.07 -43.14,0 -74.78,47.56 -74.78,91.77z"/>
   <path class="fil4" d="M3084.3 1495.12c4.6,-19.73 13.65,-47.58 37.39,-47.58 18.65,0 12.58,22.5 3.86,30.95 -7.15,6.93 -27.53,16.33 -41.25,16.63zm-30.59 30.59c0,67.84 79.43,36.97 94.75,12.31 18.72,-30.12 -20.17,8.09 -43.76,8.09 -9.18,0 -9.37,-1.62 -17,-3.4 -9.37,-40.23 -7.74,-31.31 27.68,-43.7 51.44,-18 61.76,-65.07 13.11,-65.07 -43.13,0 -74.78,47.56 -74.78,91.77z"/>
   <path class="fil4" d="M5504.44 1495.12c4.59,-19.73 13.64,-47.58 37.38,-47.58 18.65,0 12.58,22.5 3.86,30.95 -7.15,6.93 -27.53,16.33 -41.24,16.63zm-30.6 30.59c0,67.84 79.43,36.97 94.75,12.31 18.72,-30.12 -20.17,8.09 -43.76,8.09 -9.18,0 -9.37,-1.62 -17,-3.4 -9.37,-40.23 -7.74,-31.31 27.68,-43.7 51.44,-18 61.77,-65.07 13.11,-65.07 -43.13,0 -74.78,47.56 -74.78,91.77z"/>
   <path class="fil4" d="M3685.94 1495.12c4.59,-19.73 13.64,-47.58 37.39,-47.58 18.64,0 12.57,22.5 3.86,30.95 -7.16,6.93 -27.54,16.33 -41.25,16.63zm-30.59 30.59c0,67.84 79.43,36.97 94.75,12.31 10.76,-17.31 -3.66,-11.07 -12.02,-4.95 -22.02,16.1 -24.35,15.32 -48.74,9.64 -9.38,-40.23 -7.75,-31.31 27.67,-43.7 51.45,-18 61.77,-65.07 13.11,-65.07 -43.13,0 -74.77,47.56 -74.77,91.77z"/>
   <path class="fil4" d="M2632.23 1539.31l0 0zm0 0c0,-47.03 30.59,-137.09 30.59,-180.15 -6.47,0.14 -43.76,8.36 -47.59,10.2 4.63,17.32 4.14,5.79 20.4,13.59 -7.31,31.39 -36.1,159.93 -30.59,183.55 23.95,0 49.38,-18.2 50.98,-37.39 -20.31,1.69 -5.83,5.41 -23.79,10.2z"/>
   <path class="fil4" d="M3900.08 1437.34c-18.1,0 -22.35,-0.33 -23.8,16.99l20.4 0c-7.63,32.74 -17,69.01 -17,101.98 0,25.61 55.54,-0.15 57.79,-27.2 -17.26,4.02 -13.33,9.58 -30.59,13.6 0,-23.86 6.89,-44.92 11.38,-66.8 3.52,-17.17 -1.64,-18.68 14.28,-23.1 21.19,-5.88 20.11,6.9 25.32,-15.47l-30.59 0c1.46,-17.49 17.91,-48.58 0.45,-41.04 -2.15,0.93 -17.63,12.87 -19.41,15.28 -4.72,6.4 -6.33,17.58 -8.23,25.76z"/>
   <path class="fil4" d="M3787.91 1467.93c0,30.1 4.84,29.22 27.76,47.02 21.92,17.02 19.25,34.56 -0.57,34.56 -25.68,0 -17.44,-18.45 -40.79,-20.4 -32.48,48.51 78.18,56.53 78.18,-13.59 0,-17.65 -39.39,-30.72 -43.06,-49.12 -1.89,-9.46 3.43,-15.46 12.47,-15.46 22.67,0 12.94,11.84 33.99,13.59 27.37,-51.73 -67.98,-30.26 -67.98,3.4z"/>
   <path class="fil4" d="M3186.27 1467.93c0,48.41 33.9,38.4 42.11,63.5 3.06,9.32 -0.63,18.08 -14.91,18.08 -25.68,0 -17.44,-18.45 -40.79,-20.4 -32.48,48.51 78.18,56.53 78.18,-13.59 0,-12.12 -21.26,-24.6 -29.69,-31.51 -21.6,-17.68 -14.77,-33.07 -0.9,-33.07 22.67,0 12.94,11.84 33.99,13.59 27.37,-51.73 -67.99,-30.26 -67.99,3.4z"/>
   <path class="fil4" d="M2370.5 1467.93c0,30.1 4.84,29.22 27.76,47.02 21.92,17.02 19.25,34.56 -0.57,34.56 -25.68,0 -17.44,-18.45 -40.79,-20.4 -32.48,48.51 78.18,56.53 78.18,-13.59 0,-17.65 -39.38,-30.72 -43.06,-49.12 -1.89,-9.46 3.43,-15.46 12.47,-15.46 22.67,0 12.94,11.84 33.99,13.59 4.8,-9.06 9.57,-15.41 0.76,-24.27 -23.27,-23.39 -68.74,13.4 -68.74,27.67z"/>
   <path class="fil4" d="M5385.47 1467.93c0,48.41 33.89,38.4 42.11,63.5 3.05,9.32 -0.64,18.08 -14.92,18.08 -25.68,0 -17.44,-18.45 -40.79,-20.4 -32.48,48.51 78.18,56.53 78.18,-13.59 0,-17.65 -39.39,-30.72 -43.06,-49.12 -1.89,-9.46 3.43,-15.46 12.47,-15.46 22.67,0 12.94,11.84 33.99,13.59 16.58,-31.33 -16.84,-32.9 -24.77,-31.5 -14.5,2.56 -43.21,21.67 -43.21,34.9z"/>
   <path class="fil4" d="M4338.56 1464.53l-1.87 7.31 1.87 -7.31zm0 0c0,-13.09 6.88,-49.31 -32.7,-19.1 -6.68,5.11 -17.04,12.54 -16.63,19.63 0.96,16.6 7.24,0.05 22.13,-3.93 0,38.5 -18.55,87.8 -18.47,100.59 0.09,13.92 5.64,4.78 25.27,4.78 4.33,-18.58 6.9,-39.94 12.29,-59.09 5.49,-19.48 16.6,-30.2 25.1,-46.28l27.1 3.98c4.21,-6.72 10.34,-11.81 8.95,-20.14 -1.48,-8.92 -7.21,-12.55 -18.45,-11.13 -16.55,2.09 -23.31,22.43 -34.59,30.69z"/>
   <path class="fil4" d="M4012.25 1464.53l-1.87 7.31 1.87 -7.31zm0 0c0,-13.09 6.88,-49.31 -32.7,-19.1 -6.68,5.11 -17.04,12.54 -16.63,19.63 0.96,16.6 7.24,0.05 22.13,-3.93 0,38.5 -18.55,87.8 -18.47,100.59 0.09,13.92 5.64,4.78 25.27,4.78 4.33,-18.58 6.9,-39.94 12.29,-59.09 5.49,-19.48 16.6,-30.2 25.1,-46.28l27.1 3.98c4.21,-6.72 10.34,-11.81 8.95,-20.14 -1.48,-8.92 -7.21,-12.55 -18.45,-11.13 -16.55,2.09 -23.31,22.43 -34.59,30.69z"/>
   <path class="fil4" d="M5643.8 1464.53l-1.87 7.31 1.87 -7.31zm0 0c0,-13.09 6.88,-49.31 -32.7,-19.1 -6.68,5.11 -17.04,12.54 -16.63,19.63 0.8,13.77 8.2,3.57 8.45,3.48 7.29,-2.59 -0.52,-3.62 13.68,-7.41 0,38.5 -18.55,87.8 -18.47,100.59 0.09,13.92 5.64,4.78 25.27,4.78 4.33,-18.58 6.9,-39.94 12.29,-59.09 5.49,-19.48 16.6,-30.2 25.1,-46.28l27.1 3.98c7.18,-11.47 19.2,-34.9 -9.5,-31.27 -16.55,2.09 -23.31,22.43 -34.59,30.69z"/>
   <path class="fil0" d="M552.74 312.57c24.12,-25.9 61.99,-14.14 77.6,10.06 8.5,13.19 10.09,32.05 3.78,47.65 -6.39,15.82 -15.89,18.68 -27.75,28.74 2.84,-1.99 11.23,-2.93 18.95,-7.38 7.07,-4.08 4.33,-3.63 10.59,-6.48 9.55,-4.35 -0.58,-1.11 11.91,-3.71 29,-30.82 13.13,-76.44 -16.75,-93.65 -33.97,-19.57 -73.99,-5.58 -88.95,32.51l10.62 -7.74z"/>
   <path class="fil6" d="M780.77 510.27c-21.33,5.67 -25.59,19.46 -61.74,18.36 -45.49,-1.39 -112.97,-49.29 -53.76,-139.3 -12.16,6.62 -7.57,6.88 -16.59,16.31 -4.34,4.53 -10.34,8.63 -18.4,11.96 -92.4,38.11 -158.42,-86.2 -78.3,-139.3 40.87,-27.08 59.76,-6.34 92.46,-1.67 -56.16,-37.58 -136.64,-5.59 -137.89,66.16 -0.63,36.13 21.04,64.19 43.91,76.45 34.61,18.55 64.23,9.88 93.08,-4.78 -31.88,111.23 87.54,150.81 137.23,95.81z"/>
   <path class="fil0" d="M768.54 476.77c29.71,-50.86 -3.48,-59.83 -6.76,-81.6 -75.23,-45.55 -124.01,41.44 -90.2,82.95 7.26,8.91 1.02,3.48 10.78,8.48 -42.94,-107.77 120.63,-97.66 86.18,-9.83z"/>
   <path class="fil3" d="M2581.24 308.85c44.2,0 25.87,2.57 50.49,-17.49 13,-10.59 25.36,-19.86 34.49,-33.5l-47.59 0c-12.24,18.29 -25.34,33 -37.39,50.99z"/>
   <path class="fil4" d="M5694.78 1372.76c9.37,12.78 23.8,4.14 23.8,23.79 0,13.89 -43.27,33.34 -15.87,31.82 40.22,-2.24 54.55,-69.21 5.67,-69.21 -10.04,0 -11.72,5.75 -13.6,13.6z"/>
   <path class="fil4" d="M5749.17 1369.36c0,16.96 19.14,4.29 21.91,24.41 2.53,18.35 -15.09,17.83 -19.79,25.99 -16.38,28.44 69.33,-13.63 34.1,-52.63 -7.49,-8.29 -36.22,-15.14 -36.22,2.23z"/>
   <path class="fil4" d="M1867.44 1399.95c0,12.36 3.59,21.29 17.5,27.09 9.2,3.84 11.5,2.64 18.55,-4.32 0.48,-0.48 1.21,-1.4 1.63,-1.85 0.42,-0.47 1.23,-1.55 1.57,-1.94 0.34,-0.4 0.99,-1.35 1.54,-1.99 -6.11,-9.12 -34.09,-21.16 -7.4,-41.33 11.35,-8.58 9.75,-0.77 14.2,-13.05 -18.18,-8.72 -47.59,12.79 -47.59,37.39z"/>
   <path class="fil4" d="M1918.43 1399.95c0,18.42 8.83,26.32 27.19,30.59l13.59 -13.6c-5.67,-8.47 -12.06,-11.41 -20.39,-16.99 8.41,-36.1 20.84,-19.83 27.19,-37.39 -16.49,-7.91 -47.58,11.52 -47.58,37.39z"/>
   <path class="fil4" d="M4715.85 1413.55c0,12.99 -1.04,1.23 3.4,10.19 15.24,-10.2 26.29,-24.57 36.96,-37.81 7.46,-9.26 7.34,-4.27 10.63,-16.57l-27.19 0 -23.8 44.19z"/>
   <path class="fil7" d="M906.33 714.8c16.44,7.85 47.72,5.71 70.28,6.85l-3.53 -81.42c-12.67,16.01 -2.69,39.15 -9.3,70.39l-57.45 4.18z"/>
   <path class="fil8" d="M1224.45 714.41l-58.1 -3.59c-7,-22.05 2.21,-54.86 -8.19,-78.48l-3.64 57.21 -0.01 30.95 19.62 0.92 50.32 -7.01z"/>
   <path class="fil7" d="M1224.41 905.84c-17.39,-7.61 -45.08,-5.88 -65.52,-5.88 0,23.71 -1.34,54.52 7.23,73.24l4.16 -61.71 54.13 -5.65z"/>
   <path class="fil9" d="M905.76 904.56c14.09,6.92 37.09,6.06 53.72,6.19l5.33 62.79c8.13,-18.09 6.66,-50.06 6.6,-74.36l-65.65 5.38z"/>
   <path class="fil10" d="M458.72 699.74c0.88,0.44 2.15,0.17 2.67,1.24l11.87 1.13c43.9,-2.72 -1.86,13.96 86.77,40.59l4.53 20.2c7.26,-6.22 4.83,4.43 1.96,-27.49 -32.03,-4.06 -61.83,-20.16 -71.59,-42.65 -6.46,0.6 -13.05,1.17 -19.49,2l-16.72 4.98z"/>
   <path class="fil11" d="M540.18 659.08c86.12,-1.53 73.5,30.92 92.62,33.09 -6.87,-24.94 -35.67,-36.28 -60.47,-39.52 -42.72,-5.59 -29.35,3.92 -32.15,6.43z"/>
   <line class="fil0" x1="552.74" y1="312.57" x2="552.74" y2= "312.57" />
  </g>
 </g>
</svg>
