<?xml version="1.0" encoding="UTF-8"?>
<!DOCTYPE svg PUBLIC "-//W3C//DTD SVG 1.1//EN" "http://www.w3.org/Graphics/SVG/1.1/DTD/svg11.dtd">
<!-- Creator: CorelDRAW 2020 (64-Bit) -->
<svg xmlns="http://www.w3.org/2000/svg" xml:space="preserve" width="20.729mm" height="20.729mm" version="1.1" style="shape-rendering:geometricPrecision; text-rendering:geometricPrecision; image-rendering:optimizeQuality; fill-rule:evenodd; clip-rule:evenodd"
viewBox="0 0 2072.9 2072.9"
 xmlns:xlink="http://www.w3.org/1999/xlink"
 xmlns:xodm="http://www.corel.com/coreldraw/odm/2003">
 <defs>
  <style type="text/css">
   <![CDATA[
    .fil3 {fill:#0CA4BC}
    .fil12 {fill:#257688}
    .fil0 {fill:#4CCEE2}
    .fil1 {fill:#4DCFE3}
    .fil4 {fill:#4DD0E4}
    .fil5 {fill:#52D1E4}
    .fil11 {fill:#54D1E5}
    .fil7 {fill:#E3F8FB}
    .fil9 {fill:#E4F8FB}
    .fil10 {fill:#F2FBFD}
    .fil8 {fill:#F6FCFD}
    .fil6 {fill:#FAFCFC}
    .fil2 {fill:#FEFEFE}
   ]]>
  </style>
 </defs>
 <g id="Capa_x0020_1">
  <metadata id="CorelCorpID_0Corel-Layer"/>
  <g id="_3188739429104">
   <path class="fil0" d="M1303.25 1758.2c6.5,-19.61 94.59,-225.53 98.97,-230.56 3.37,2.56 89.01,200.7 99.55,230.59l-41.55 -0.26c-2.59,-7.36 -17,-50.4 -22.58,-51.97l-74.57 0c-4.76,0.93 -3.39,0.19 -8.17,12.26 -2.01,5.1 -3.42,8.6 -5.31,13.37 -3.73,9.4 -8,17.35 -10.53,26.57l-35.81 0zm-333.17 -222.4c66.69,-10.87 121.31,37.89 130.49,93.53 11.12,67.41 -37.9,119.7 -93.18,129.42 -68.72,12.09 -122.67,-36.56 -131.75,-93.1 -10.84,-67.47 38.42,-120.72 94.44,-129.85zm-279.66 0.94c24.8,-2.38 80.38,-2.13 101.47,5.79 25.15,9.44 43.54,31.34 43.54,64.62 0,48.73 -26.84,58.24 -34.9,67.12 11,21.08 44.33,66.98 52.49,83.93l-41.99 -0.12c-9.48,-18.2 -35.72,-54.48 -48.81,-75.98l-35.85 -0.35 0.04 75.77 -35.99 0.21 0 -220.99zm455.65 172.24c18.35,6.74 27.46,17.78 53.15,18.9 19.99,0.86 40.79,-7.07 43.25,-25.61 5.13,-38.54 -54.64,-41.95 -78.69,-61.78 -40.11,-33.07 -27.69,-113.95 64.39,-103.5 23.89,2.71 33.86,9.89 51.51,17.77l-13.19 28.06c-18.94,-6.7 -31.56,-15.69 -56.09,-14.32 -19.58,1.09 -39.73,16.23 -27.82,38.36 11.98,22.25 66.72,23.43 87.4,54.28 25.04,37.37 3.54,79.17 -27.27,92.25 -44.46,18.88 -80.98,-1.55 -111.63,-15.88l14.99 -28.53zm250.41 -221.13c6.49,-19.61 94.59,-225.53 98.96,-230.57 3.38,2.57 89.01,200.71 99.55,230.6l-41.55 -0.26c-3.35,-9.52 -6.63,-17.51 -10.29,-27.01 -2.88,-7.47 -5.52,-20.8 -12.28,-24.96l-74.58 0c-5.82,2.36 -1.23,-2.46 -5.54,5.63l-18.52 46.57 -35.75 0zm-630.2 0c6.49,-19.61 94.59,-225.53 98.96,-230.57 5.04,3.84 64.36,146.63 75.07,172.28 8.11,19.44 17.41,38.27 24.48,58.32l-41.55 -0.26c-2.59,-7.36 -17,-50.4 -22.57,-51.97l-74.58 0c-5.82,2.36 -1.23,-2.46 -5.54,5.63l-7.94 20.01c-3.73,9.39 -8,17.34 -10.5,26.56l-35.83 0zm235.5 -229.29c8.25,1.7 34.45,30.15 41.51,38.16l119.86 116.71 -0.46 -147.51 35.87 0.45 0 228.83c-8.5,-2.2 -32.13,-29.23 -40.37,-37.43 -13.25,-13.19 -26.77,-24.96 -40.56,-37.77 -12.64,-11.74 -21.34,-23.09 -39.33,-38.95 -7.29,-6.43 -33.41,-34.45 -40.97,-37.45l0.89 143.9 -36.44 -0.11 0 -228.83zm241.61 7.36c24.83,-0.04 132.63,-1.78 148.61,0.92l0.04 32.02 -57.37 0.68 0.01 187.96 -35.51 0.35 0.01 -187.95 -55.94 -0.36 0.15 -33.62zm-634.29 172.71c18.34,6.74 27.45,17.78 53.14,18.89 19.99,0.87 40.8,-7.06 43.26,-25.6 5.12,-38.54 -54.64,-41.95 -78.69,-61.78 -40.12,-33.08 -27.7,-113.95 64.38,-103.5 23.9,2.71 33.86,9.89 51.52,17.77l-13.2 28.06c-18.94,-6.7 -31.55,-15.69 -56.09,-14.32 -19.57,1.09 -39.72,16.23 -27.81,38.36 5.88,10.93 28.99,19.84 44.82,25.9 20.44,7.83 32.97,14.06 42.57,28.38 25.05,37.37 3.54,79.17 -27.26,92.25 -44.46,18.88 -80.98,-1.55 -111.63,-15.88l14.99 -28.53zm533.69 -368.47l15.44 0 0 115.63 -15.44 0 0 -115.63zm-261.03 0l15.44 0 0 115.63 -15.44 0 0 -115.63zm-137.97 0l15.44 0 0 100.49 7.2 0.19 51.09 0 -0.05 14.95 -73.68 0 0 -115.63zm624.61 115.63c4.73,-13.58 46.48,-114.68 51.18,-118.75l49.41 118.56c-19.39,0.26 -16.79,2.49 -23.07,-13.67 -2.14,-5.51 -4.44,-10.6 -5.94,-15.97 -45.49,0 -44.67,-8.63 -56.14,29.83l-15.44 0zm-398.27 -118.63l20.91 20.79c8.59,9.36 56.53,61.05 63.18,64.49l-0.31 -82.09 15.44 -0.19 0 118.23c-7.29,-3.11 -6.46,-3.48 -13.19,-10.79 -3.72,-4.04 -6.16,-6.51 -10.1,-10.43 -7.34,-7.31 -12.94,-13.46 -20.26,-20.76 -9.72,-9.68 -31.94,-35.08 -41.16,-41.03l0.19 80.41 -15.47 0 0.77 -118.63zm343.74 109.29c-13.88,13.96 -45.02,12.16 -61.84,2.95 -39.27,-21.52 -37.19,-79.44 -2.5,-101.59 23.64,-15.09 41.04,-8.06 63.67,0.06l-5.32 15.19c-16.24,-6.91 -30.42,-15.31 -48.99,-2.16 -27.96,19.8 -25.81,63.77 4.47,77.24 19.66,8.75 29.67,1.55 45.3,-4.47l5.21 12.78zm-635.79 0c-13.88,13.96 -45.03,12.16 -61.84,2.95 -39.28,-21.52 -37.19,-79.44 -2.5,-101.59 23.64,-15.09 41.03,-8.06 63.67,0.06l-5.32 15.19c-16.24,-6.91 -30.43,-15.31 -48.99,-2.16 -27.96,19.8 -25.82,63.77 4.47,77.24 19.66,8.75 29.67,1.55 45.29,-4.47l5.22 12.78zm218.21 -135.12l16.07 0c-2.21,5.18 -1.57,4.72 -5.74,8.8 -13,12.68 -11.45,12.52 -21.9,12.52l11.57 -21.32zm361.22 -326.33l55.64 3.24c-13.97,5.16 -34.29,-0.59 -49.61,4.19 0,17.18 1.2,41.29 -4.48,54.84l-1.55 -62.27zm-170.17 0.8l0.39 9.45c0.64,12.2 -3.9,48.76 -3.9,54.64l-2.45 -57.77 -49.87 -4.27 55.83 -2.05zm14.21 -151.38c2.86,-28.89 -4.93,-70.71 6.06,-94.6 10.69,-23.26 30.67,-35.99 65.28,-35.96 92.46,0.08 67.3,89.79 71.33,130.56 61.91,0 129.61,-14.57 129.63,71.33 0.01,84.51 -69.93,70.41 -130.1,70.41 0,56.61 13.84,130.04 -70.86,130.08 -85.5,0.04 -70.87,-73.58 -70.87,-130.08 -71.05,0 -130.1,10.62 -130.07,-70.4 0.03,-86.33 66.59,-71.34 129.6,-71.34zm154.85 -88.47l2.6 42.34 0.02 30.02 14.56 -0.25 40.28 2.79c-11.02,1.94 -49.47,3.89 -60.44,1.85l2.98 -76.75zm-168.46 1.64c3.75,17.02 3.58,43.93 3.58,63.07l0.2 3.76 -1.21 9.46 -58.91 -3.42 53.98 -3.26 2.36 -69.61zm-247.05 -52.51c1.22,-4.34 -1.86,-1.13 1.98,-3.33 6.44,0.53 8.6,-0.35 6.41,5.1l51.64 24.02c16.65,9.2 31.07,19.37 44.39,30.21 16.73,13.61 26.53,18.28 25.44,28.79 -2.37,23.02 -18.94,49.04 -32.04,61.38 -12.07,11.36 -30.09,22.34 -40.03,34.53 -10.88,13.34 -17.15,38.81 -11.77,60.65 6.62,26.87 57.12,78.44 -37.48,69.45 6.62,30.27 -4.85,37.3 -32.07,41.83 8.01,47.24 -38.07,26.12 -51.6,44.29 -7.39,15.13 -2.38,74.5 -44.16,33.83 -5.26,-5.13 -9.73,-8.41 -14.55,-13.4 -4.73,-4.9 -7.84,-9.15 -12.29,-13.82 -43.91,-46 -71.07,-127.07 -63.21,-200.56 7,-65.38 35.29,-112.6 65.9,-148.95l27.84 -26.24c20.09,-15.88 42.84,-37.15 71.01,-35.6 15.78,0.87 30.39,3.81 44.59,7.82zm-47.69 -13.97c22.17,-16.61 88.75,-39.46 124.96,-39.07 11.48,26.7 52.09,37.75 53.73,39.97 4.86,17.7 12.86,73.31 3.36,88.77 -6.07,-4.22 -10.99,-12.43 -16.78,-17.89 -49.42,-46.51 -94.02,-65.48 -165.27,-71.78zm109.25 558.94c-35.45,12.12 -124.69,-1.74 -159.33,-12.64 -82.99,-26.13 -155.32,-81.3 -200.07,-154.24 -106.28,-173.27 -48.06,-387.15 113.8,-489.57 29.71,-18.8 85.79,-45.35 128.22,-49.83 3.56,4.52 5.56,10.21 8.37,15 19.92,33.96 60.38,50.29 100.85,42.46l3.36 29.74c-262.45,11.03 -398.12,334.2 -205.55,526.91 48.88,48.93 113.39,83.8 210.35,92.17zm141.78 -703.1c85.52,-6.05 126.19,-13.69 217.69,5.62 63.92,13.49 122.04,38 167.56,69.31 105.87,72.82 163.69,191.25 124.77,324.73 -18.82,64.54 -55.69,110.48 -88.74,148.06 -10.77,12.24 -19.26,18.16 -30.78,28.89 -96.76,90.21 -251.32,142.4 -386.76,146.5 -12.77,0.38 -96.44,-0.03 -110.51,-7.67 82.81,-2.64 99.65,4.17 188.48,-18.8 140.76,-36.39 283.99,-137.95 328.65,-288.51 16.78,-56.56 14.2,-124.74 -7,-177.95 -38.36,-96.27 -116.97,-159.27 -215.55,-194.59 -44.66,-16 -123.33,-31.9 -174.76,-28.26 -1.39,1.39 2.6,8.06 -3.73,1.64 24.9,20.61 16.98,84.43 -7.06,99.2 -4.12,2.53 -0.04,1.23 -5.49,1.97 -24.44,22.95 -68.09,24.76 -96.23,2.06 -9.35,-7.54 -21.54,-22.39 -25.61,-39.86 -6.29,-27 5.77,-43.04 4.74,-51.97 -1.67,5.67 3.34,2.84 -5.25,7.14 -5.45,2.72 -1.97,1.82 -8.05,0.8 -54.03,26.93 -111.47,-18.15 -107.32,-73.5 2.09,-27.78 20.62,-48.94 38.49,-58.81 25.91,-14.31 52.8,-10.25 76.05,2.18 8.91,-0.13 16.02,7.7 21.48,14.5 5.53,6.88 9.64,13.93 12.76,23.41 2.84,8.64 5.54,21.3 4.14,31.88 -0.85,6.36 -2.51,20.44 -7.06,24.22 -0.07,-3.61 -3.99,2.71 1.21,-1.87 0.28,-0.24 1.36,-0.99 1.76,-1.25 24.23,-15.25 57.36,-13.2 83.48,1.84l5.64 4.43c0.35,0.4 0.74,1.06 1.02,1.41l1.98 3.25zm-855.81 452.65c1.75,2.93 1.84,2.73 -1.38,11.63l-13.11 41.1c-5.59,18.76 -10.33,38.23 -14.9,57.84 -28.74,123.38 -28.29,269.86 -0.36,390.83 18.45,79.9 42.49,144.5 75.9,211.26 16.14,32.27 34.17,62.98 52.85,90.77 19.02,28.31 41.44,60.03 62.26,83.22 3.91,4.36 4.45,5.13 7.7,9.1 3.14,3.84 5.88,5.86 9.04,9.52 6.5,7.5 8.63,11.48 16.83,18.65l36.29 36.45c11.22,12.8 64.55,55.18 78.19,65.39 187.17,140.12 434.94,204.95 678.23,163.08 164.36,-28.29 295.38,-96.56 398.85,-177.15 306.87,-239.01 426.69,-663.28 279.77,-1035.13 -20.1,-50.87 -60.59,-131.17 -93.54,-176.96 -5.68,-7.89 -6.3,-7.12 -4.62,-9.27 -4.6,-10.16 -25.52,-35.43 -34.7,-46.29 -3.11,-3.68 -6.5,-7.07 -9.48,-11.04l-66.92 -71.13c-7.4,-6.84 -12.84,-10.91 -20.3,-18.84 -4.05,-4.32 -6.42,-5.61 -11.06,-9.51 -3.98,-3.34 -5.63,-5.71 -9.65,-8.93 -68.62,-54.97 -106.97,-83.72 -192.02,-125.04 -153.43,-74.55 -343.21,-108.67 -532.52,-76.09 -129.91,22.36 -236.42,67.43 -340.97,134.6 -43.91,28.22 -94.86,70.69 -132.43,106.19 -14.01,13.23 -24.81,27.98 -37.88,40.43 -41.04,39.09 -105.87,140.75 -130.64,186.26 -10.64,19.54 -45.22,89.39 -49.43,109.06z"/>
   <path class="fil1" d="M112.91 1044.07c0,-138.71 28.14,-271.77 80.85,-384.31 12.34,-26.36 23.79,-50.54 37.61,-74.28 29.6,-50.84 54.66,-88.45 91.3,-132.41l39.01 -44.94c6.73,-6.23 9.74,-8.57 15.15,-14.65 63.7,-71.71 178.51,-146.28 262.47,-186.83 96.48,-46.59 241.71,-86.43 365.78,-86.43l48.48 0c124.87,0 266.09,39.35 364.49,85.84 64.97,30.7 154.78,85.74 204.99,132.41l43.71 40.21c5.43,5.41 9.5,9.48 14.93,14.91 80.66,80.67 133.76,161.47 183.76,267.45 51.1,108.31 80.29,245.45 80.29,379.3 0,139.98 -32.53,260.23 -81.02,373.03 -24.68,57.4 -69.38,130.02 -105.95,177.4 -8.94,11.58 -16.09,21.22 -25.72,32.07 -68.84,77.55 -87.04,97.29 -177.59,163.66 -149.11,109.28 -340.45,166.06 -535.44,166.06 -190.13,0 -368.17,-63.82 -514.71,-164.47 -38.59,-26.51 -92.64,-71.8 -124.14,-103.32 -51.61,-51.63 -111.65,-129.7 -146.78,-192.6 -13.51,-24.19 -25.62,-48.24 -38.68,-74.97 -48.92,-100.16 -82.79,-246.26 -82.79,-373.13zm-17.38 -384.7c2.63,3.24 -6.95,23.65 -8.51,27.87 -125.55,339.05 -56.46,715.26 166.14,989.4 102.23,125.92 225.87,217.08 375.5,284.6 161.14,72.72 371.06,102 564.62,69.16 184.74,-31.33 342.54,-112.59 456.05,-204.12 30.42,-24.53 80.78,-68.57 106.67,-98.42 24.32,-28.03 33,-34.92 57.77,-67.15 48.43,-63.02 85.42,-122.39 124.59,-205.38 115.92,-245.66 120.66,-560.74 8.79,-818.21 -17.33,-39.88 -34.79,-73.62 -54.93,-109.18 -26.28,-46.41 -40.49,-60.56 -61.54,-93.55 -4.42,-6.93 -3.04,-2.61 -1.33,-5.02 -4.02,-7.81 -9.76,-13.48 -14.65,-19.48l-66.23 -73.76c-7.66,-7.99 -14.61,-14.42 -22.67,-22.12 -22.19,-21.2 -43.07,-41.75 -67.86,-60.78 -69.61,-53.42 -128.82,-96.06 -212.3,-132.64 -282.88,-123.98 -566.6,-124.63 -848.02,5.08 -98.83,45.55 -226.11,135.93 -299.41,219.01l-77.9 93.64c-29.08,38.67 -116.74,177.73 -124.78,221.05z"/>
   <path class="fil2" d="M188.42 719.6c4.21,-19.67 38.79,-89.52 49.43,-109.06 24.77,-45.51 89.6,-147.17 130.64,-186.26 13.07,-12.45 23.87,-27.2 37.88,-40.43 37.57,-35.5 88.52,-77.97 132.43,-106.19 104.55,-67.17 211.06,-112.24 340.97,-134.6 189.31,-32.58 379.09,1.54 532.52,76.09 85.05,41.32 123.4,70.07 192.02,125.04 4.02,3.22 5.67,5.59 9.65,8.93 4.64,3.9 7.01,5.19 11.06,9.51 7.46,7.93 12.9,12 20.3,18.84l66.92 71.13c2.98,3.97 6.37,7.36 9.48,11.04 9.18,10.86 30.1,36.13 34.7,46.29 8.91,9.48 21.24,29.84 29.36,42.48 9.75,15.2 18.04,29.19 27.37,45.28 17.35,29.9 33.59,64.66 47.31,98.15 28.62,69.86 50.45,148.59 60.23,230.67 21.26,178.47 -10.2,346.68 -78.2,490.6 -68.26,144.45 -157.64,244.74 -258.56,325.16 -100.85,80.37 -241.11,152.15 -404.24,179.41 -207.5,34.68 -426.86,-5.67 -597.2,-106.37 -43.86,-25.93 -70.49,-43.47 -107.81,-72.99 -6.94,-5.49 -13.03,-10.71 -20.45,-16.83 -22.08,-18.21 -56.89,-49.14 -75.45,-69.99 -6.42,-7.21 -10.34,-12.12 -17.84,-19.47l-33.36 -39.37c-169.96,-212.41 -235.71,-494.79 -173.13,-763.77 9.64,-41.46 22.46,-75.43 33.97,-113.29zm-75.51 324.47c0,126.87 33.87,272.97 82.79,373.13 13.06,26.73 25.17,50.78 38.68,74.97 35.13,62.9 95.17,140.97 146.78,192.6 31.5,31.52 85.55,76.81 124.14,103.32 146.54,100.65 324.58,164.47 514.71,164.47 194.99,0 386.33,-56.78 535.44,-166.06 90.55,-66.37 108.75,-86.11 177.59,-163.66 9.63,-10.85 16.78,-20.49 25.72,-32.07 36.57,-47.38 81.27,-120 105.95,-177.4 48.49,-112.8 81.02,-233.05 81.02,-373.03 0,-133.85 -29.19,-270.99 -80.29,-379.3 -50,-105.98 -103.1,-186.78 -183.76,-267.45 -5.43,-5.43 -9.5,-9.5 -14.93,-14.91l-43.71 -40.21c-50.21,-46.67 -140.02,-101.71 -204.99,-132.41 -98.4,-46.49 -239.62,-85.84 -364.49,-85.84l-48.48 0c-124.07,0 -269.3,39.84 -365.78,86.43 -83.96,40.55 -198.77,115.12 -262.47,186.83 -5.41,6.08 -8.42,8.42 -15.15,14.65l-39.01 44.94c-36.64,43.96 -61.7,81.57 -91.3,132.41 -13.82,23.74 -25.27,47.92 -37.61,74.28 -52.71,112.54 -80.85,245.6 -80.85,384.31z"/>
   <path class="fil2" d="M757.52 557.44c7.35,-3.91 20.5,-3.91 29.42,-4.38 26.44,31.67 26.74,26.48 64.83,38.13l2.53 18.23c-0.83,6.18 1.02,0.53 -2.6,4.06l-4.49 -19.36c-19.45,-4.36 -36.48,-10.12 -51.26,-23.35 -5.33,-4.77 -5.19,-7.84 -10.88,-13.32 -7.01,-2.83 -21.06,6.12 -27.55,-0.01zm72.35 -39.15c13.03,-6.57 38.8,-0.61 51.15,4.73 11.97,5.19 27.18,16.14 29.53,28.66 -5.59,-2.34 -11.12,-10.91 -15.48,-14.79 -6.95,-6.17 -8.15,-6.86 -17.38,-10.59 -28.88,-11.67 -40.48,-1.67 -47.82,-8.01zm19.41 -91.44l-8.39 -1.77c-14.2,-4.01 -28.81,-6.95 -44.59,-7.82 -28.17,-1.55 -50.92,19.72 -71.01,35.6l-27.84 26.24c-30.61,36.35 -58.9,83.57 -65.9,148.95 -7.86,73.49 19.3,154.56 63.21,200.56 4.45,4.67 7.56,8.92 12.29,13.82 4.82,4.99 9.29,8.27 14.55,13.4 41.78,40.67 36.77,-18.7 44.16,-33.83 13.53,-18.17 59.61,2.95 51.6,-44.29 27.22,-4.53 38.69,-11.56 32.07,-41.83 94.6,8.99 44.1,-42.58 37.48,-69.45 -5.38,-21.84 0.89,-47.31 11.77,-60.65 9.94,-12.19 27.96,-23.17 40.03,-34.53 13.1,-12.34 29.67,-38.36 32.04,-61.38 1.09,-10.51 -8.71,-15.18 -25.44,-28.79 -13.32,-10.84 -27.74,-21.01 -44.39,-30.21l-51.64 -24.02z"/>
   <path class="fil2" d="M902.45 970.05c-96.96,-8.37 -161.47,-43.24 -210.35,-92.17 -192.57,-192.71 -56.9,-515.88 205.55,-526.91l-3.36 -29.74c-40.47,7.83 -80.93,-8.5 -100.85,-42.46 -2.81,-4.79 -4.81,-10.48 -8.37,-15 -42.43,4.48 -98.51,31.03 -128.22,49.83 -161.86,102.42 -220.08,316.3 -113.8,489.57 44.75,72.94 117.08,128.11 200.07,154.24 34.64,10.9 123.88,24.76 159.33,12.64z"/>
   <path class="fil2" d="M1101.55 564.42c-63.01,0 -129.57,-14.99 -129.6,71.34 -0.03,81.02 59.02,70.4 130.07,70.4 0,56.5 -14.63,130.12 70.87,130.08 84.7,-0.04 70.86,-73.47 70.86,-130.08 60.17,0 130.11,14.1 130.1,-70.41 -0.02,-85.9 -67.72,-71.33 -129.63,-71.33 -4.03,-40.77 21.13,-130.48 -71.33,-130.56 -34.61,-0.03 -54.59,12.7 -65.28,35.96 -10.99,23.89 -3.2,65.71 -6.06,94.6z"/>
   <path class="fil2" d="M1057.28 274.28c51.43,-3.64 130.1,12.26 174.76,28.26 98.58,35.32 177.19,98.32 215.55,194.59 21.2,53.21 23.78,121.39 7,177.95 -44.66,150.56 -187.89,252.12 -328.65,288.51 -88.83,22.97 -105.67,16.16 -188.48,18.8 14.07,7.64 97.74,8.05 110.51,7.67 135.44,-4.1 290,-56.29 386.76,-146.5 11.52,-10.73 20.01,-16.65 30.78,-28.89 33.05,-37.58 69.92,-83.52 88.74,-148.06 38.92,-133.48 -18.9,-251.91 -124.77,-324.73 -45.52,-31.31 -103.64,-55.82 -167.56,-69.31 -91.5,-19.31 -132.17,-11.67 -217.69,-5.62 -24.52,4.88 -11.69,2.35 -30.25,-5.49 -30.96,-13.09 -67.17,2.2 -78.48,32.47 -25.14,67.29 61.55,93.44 83.2,69.98l8.54 -9.87c6.26,-6.96 10.34,-17.29 9.71,-29.65 -2.47,-49.02 -75.15,-55.52 -86.01,-7.63 -6.64,29.28 11.19,40.25 24.46,50.41 -27.89,-5.18 -49.78,-43.4 -33.39,-76.06 17.56,-35 63.6,-37.7 81.14,-21.01 -6.86,2.55 -32.57,8.55 -38.07,8.54l72.2 -4.36z"/>
   <path class="fil3" d="M95.53 659.37c-7.98,14.52 -17.25,42.76 -23.15,59.81 -22.13,63.91 -38.25,135.11 -46.87,203.27 -56.66,447.75 195.11,880.14 601.32,1053.67 352.74,150.69 739.27,93.62 1033.09,-137.37 14.55,-11.43 54.51,-45.44 67.42,-59.35 7.03,-7.57 13.91,-12.66 20.72,-20.36l40.92 -42.91c74.89,-90.27 110.73,-143.11 162.85,-252.96 75.51,-159.12 107.55,-373.14 77.41,-568.68 -14.95,-96.97 -40.78,-176.05 -75.74,-258.13 -16.1,-37.79 -36.7,-75.61 -56.91,-109 -12.31,-20.35 -53.05,-83.31 -67.24,-97.99 -1.71,2.41 -3.09,-1.91 1.33,5.02 21.05,32.99 35.26,47.14 61.54,93.55 20.14,35.56 37.6,69.3 54.93,109.18 111.87,257.47 107.13,572.55 -8.79,818.21 -39.17,82.99 -76.16,142.36 -124.59,205.38 -24.77,32.23 -33.45,39.12 -57.77,67.15 -25.89,29.85 -76.25,73.89 -106.67,98.42 -113.51,91.53 -271.31,172.79 -456.05,204.12 -193.56,32.84 -403.48,3.56 -564.62,-69.16 -149.63,-67.52 -273.27,-158.68 -375.5,-284.6 -222.6,-274.14 -291.69,-650.35 -166.14,-989.4 1.56,-4.22 11.14,-24.63 8.51,-27.87z"/>
   <path class="fil3" d="M188.42 719.6c-11.51,37.86 -24.33,71.83 -33.97,113.29 -62.58,268.98 3.17,551.36 173.13,763.77l33.36 39.37c7.5,7.35 11.42,12.26 17.84,19.47 18.56,20.85 53.37,51.78 75.45,69.99 7.42,6.12 13.51,11.34 20.45,16.83 37.32,29.52 63.95,47.06 107.81,72.99 170.34,100.7 389.7,141.05 597.2,106.37 163.13,-27.26 303.39,-99.04 404.24,-179.41 100.92,-80.42 190.3,-180.71 258.56,-325.16 68,-143.92 99.46,-312.13 78.2,-490.6 -9.78,-82.08 -31.61,-160.81 -60.23,-230.67 -13.72,-33.49 -29.96,-68.25 -47.31,-98.15 -9.33,-16.09 -17.62,-30.08 -27.37,-45.28 -8.12,-12.64 -20.45,-33 -29.36,-42.48 -1.68,2.15 -1.06,1.38 4.62,9.27 32.95,45.79 73.44,126.09 93.54,176.96 146.92,371.85 27.1,796.12 -279.77,1035.13 -103.47,80.59 -234.49,148.86 -398.85,177.15 -243.29,41.87 -491.06,-22.96 -678.23,-163.08 -13.64,-10.21 -66.97,-52.59 -78.19,-65.39l-36.29 -36.45c-8.2,-7.17 -10.33,-11.15 -16.83,-18.65 -3.16,-3.66 -5.9,-5.68 -9.04,-9.52 -3.25,-3.97 -3.79,-4.74 -7.7,-9.1 -20.82,-23.19 -43.24,-54.91 -62.26,-83.22 -18.68,-27.79 -36.71,-58.5 -52.85,-90.77 -33.41,-66.76 -57.45,-131.36 -75.9,-211.26 -27.93,-120.97 -28.38,-267.45 0.36,-390.83 4.57,-19.61 9.31,-39.08 14.9,-57.84l13.11 -41.1c3.22,-8.9 3.13,-8.7 1.38,-11.63z"/>
   <path class="fil2" d="M1001.78 1487.39l36.44 0.11 -0.89 -143.9c7.56,3 33.68,31.02 40.97,37.45 17.99,15.86 26.69,27.21 39.33,38.95 13.79,12.81 27.31,24.58 40.56,37.77 8.24,8.2 31.87,35.23 40.37,37.43l0 -228.83 -35.87 -0.45 0.46 147.51 -119.86 -116.71c-7.06,-8.01 -33.26,-36.46 -41.51,-38.16l0 228.83z"/>
   <path class="fil2" d="M912.22 1659.35c-6.4,-46.14 25.19,-84.75 64.2,-90.28 45.76,-6.49 82.13,27.16 87.66,66.64 6.47,46.21 -25.13,84.17 -63.91,89.69 -45.81,6.51 -82.54,-27.08 -87.95,-66.05zm57.86 -123.55c-56.02,9.13 -105.28,62.38 -94.44,129.85 9.08,56.54 63.03,105.19 131.75,93.1 55.28,-9.72 104.3,-62.01 93.18,-129.42 -9.18,-55.64 -63.8,-104.4 -130.49,-93.53z"/>
   <path class="fil2" d="M726.35 1569.86l27.02 0c26.6,0 44.75,12.01 44.75,39.15 0,28.54 -18.61,39.16 -46.61,39.16l-25.16 0 0 -78.31zm-35.93 187.87l35.99 -0.21 -0.04 -75.77 35.85 0.35c13.09,21.5 39.33,57.78 48.81,75.98l41.99 0.12c-8.16,-16.95 -41.49,-62.85 -52.49,-83.93 8.06,-8.88 34.9,-18.39 34.9,-67.12 0,-33.28 -18.39,-55.18 -43.54,-64.62 -21.09,-7.92 -76.67,-8.17 -101.47,-5.79l0 220.99z"/>
   <path class="fil4" d="M912.22 1659.35c5.41,38.97 42.14,72.56 87.95,66.05 38.78,-5.52 70.38,-43.48 63.91,-89.69 -5.53,-39.48 -41.9,-73.13 -87.66,-66.64 -39.01,5.53 -70.6,44.14 -64.2,90.28z"/>
   <path class="fil5" d="M878.29 277.07c-59.08,2.42 -58.54,-58.87 -45.57,-82.05 7.17,-12.83 21.6,-25.42 40.77,-28.27 13.86,-2.06 29.08,0.43 41.06,7.53 10.39,6.16 7.92,6.36 8.14,9.57 1.03,8.39 37.96,45.25 -4.69,81.2 -3.16,2.66 -8.08,5.91 -12.23,7.75 -1.91,0.85 -6.5,2.27 -6.74,2.34 -5.63,1.73 -25.55,7.41 -20.74,1.93zm32.31 18.19c6.08,1.02 2.6,1.92 8.05,-0.8 8.59,-4.3 3.58,-1.47 5.25,-7.14 2.65,-4.87 10.15,-13.81 14.84,-16.1 -9.17,17.06 -19.04,21.73 -18.66,49.43 0.75,53.72 54.62,83.46 96.86,67.76 8.95,-3.32 17.15,-10.23 24.06,-11.32 5.45,-0.74 1.37,0.56 5.49,-1.97 24.04,-14.77 31.96,-78.59 7.06,-99.2 6.33,6.42 2.34,-0.25 3.73,-1.64l-72.2 4.36c5.5,0.01 31.21,-5.99 38.07,-8.54 -17.54,-16.69 -63.58,-13.99 -81.14,21.01 -16.39,32.66 5.5,70.88 33.39,76.06 -13.27,-10.16 -31.1,-21.13 -24.46,-50.41 10.86,-47.89 83.54,-41.39 86.01,7.63 0.63,12.36 -3.45,22.69 -9.71,29.65l-8.54 9.87c-21.65,23.46 -108.34,-2.69 -83.2,-69.98 11.31,-30.27 47.52,-45.56 78.48,-32.47 18.56,7.84 5.73,10.37 30.25,5.49l-1.98 -3.25c-0.28,-0.35 -0.67,-1.01 -1.02,-1.41l-5.64 -4.43c-26.12,-15.04 -59.25,-17.09 -83.48,-1.84 -0.4,0.26 -1.48,1.01 -1.76,1.25 -5.2,4.58 -1.28,-1.74 -1.21,1.87 4.55,-3.78 6.21,-17.86 7.06,-24.22 1.4,-10.58 -1.3,-23.24 -4.14,-31.88 -3.12,-9.48 -7.23,-16.53 -12.76,-23.41 -5.46,-6.8 -12.57,-14.63 -21.48,-14.5 -11.54,-1.21 -19.44,-8.49 -37.66,-8.25 -68.63,0.9 -99.7,86.67 -41.83,129.19 31.58,23.2 58.46,9.15 72.27,9.19z"/>
   <path class="fil2" d="M1493.13 1338.1l27.94 67.31 -55.12 -0.17 27.18 -67.14zm-96.65 149.75l35.75 0 18.52 -46.57c4.31,-8.09 -0.28,-3.27 5.54,-5.63l74.58 0c6.76,4.16 9.4,17.49 12.28,24.96 3.66,9.5 6.94,17.49 10.29,27.01l41.55 0.26c-10.54,-29.89 -96.17,-228.03 -99.55,-230.6 -4.37,5.04 -92.47,210.96 -98.96,230.57z"/>
   <path class="fil2" d="M862.93 1338.1l27.94 67.31 -55.12 -0.17 27.18 -67.14zm-96.65 149.75l35.83 0c2.5,-9.22 6.77,-17.17 10.5,-26.56l7.94 -20.01c4.31,-8.09 -0.28,-3.27 5.54,-5.63l74.58 0c5.57,1.57 19.98,44.61 22.57,51.97l41.55 0.26c-7.07,-20.05 -16.37,-38.88 -24.48,-58.32 -10.71,-25.65 -70.03,-168.44 -75.07,-172.28 -4.37,5.04 -92.47,210.96 -98.96,230.57z"/>
   <path class="fil2" d="M1399.91 1608.45c5.01,5.53 12.05,26.42 15.17,34.3 4.23,10.71 9.26,22.25 12.76,33.01l-55.12 -0.17 27.19 -67.14zm-96.66 149.75l35.81 0c2.53,-9.22 6.8,-17.17 10.53,-26.57 1.89,-4.77 3.3,-8.27 5.31,-13.37 4.78,-12.07 3.41,-11.33 8.17,-12.26l74.57 0c5.58,1.57 19.99,44.61 22.58,51.97l41.55 0.26c-10.54,-29.89 -96.18,-228.03 -99.55,-230.59 -4.38,5.03 -92.47,210.95 -98.97,230.56z"/>
   <path class="fil2" d="M609.1 1438.63l-14.99 28.53c30.65,14.33 67.17,34.76 111.63,15.88 30.8,-13.08 52.31,-54.88 27.26,-92.25 -9.6,-14.32 -22.13,-20.55 -42.57,-28.38 -15.83,-6.06 -38.94,-14.97 -44.82,-25.9 -11.91,-22.13 8.24,-37.27 27.81,-38.36 24.54,-1.37 37.15,7.62 56.09,14.32l13.2 -28.06c-17.66,-7.88 -27.62,-15.06 -51.52,-17.77 -92.08,-10.45 -104.5,70.42 -64.38,103.5 24.05,19.83 83.81,23.24 78.69,61.78 -2.46,18.54 -23.27,26.47 -43.26,25.6 -25.69,-1.11 -34.8,-12.15 -53.14,-18.89z"/>
   <path class="fil2" d="M1146.07 1708.98l-14.99 28.53c30.65,14.33 67.17,34.76 111.63,15.88 30.81,-13.08 52.31,-54.88 27.27,-92.25 -20.68,-30.85 -75.42,-32.03 -87.4,-54.28 -11.91,-22.13 8.24,-37.27 27.82,-38.36 24.53,-1.37 37.15,7.62 56.09,14.32l13.19 -28.06c-17.65,-7.88 -27.62,-15.06 -51.51,-17.77 -92.08,-10.45 -104.5,70.43 -64.39,103.5 24.05,19.83 83.82,23.24 78.69,61.78 -2.46,18.54 -23.26,26.47 -43.25,25.61 -25.69,-1.12 -34.8,-12.16 -53.15,-18.9z"/>
   <path class="fil2" d="M1243.24 1299.54l55.94 0.36 -0.01 187.95 35.51 -0.35 -0.01 -187.96 57.37 -0.68 -0.04 -32.02c-15.98,-2.7 -123.78,-0.96 -148.61,-0.92l-0.15 33.62z"/>
   <path class="fil2" d="M793.2 411.11c71.25,6.3 115.85,25.27 165.27,71.78 5.79,5.46 10.71,13.67 16.78,17.89 9.5,-15.46 1.5,-71.07 -3.36,-88.77 -1.64,-2.22 -42.25,-13.27 -53.73,-39.97 -36.21,-0.39 -102.79,22.46 -124.96,39.07z"/>
   <path class="fil4" d="M878.29 277.07c-4.81,5.48 15.11,-0.2 20.74,-1.93 0.24,-0.07 4.83,-1.49 6.74,-2.34 4.15,-1.84 9.07,-5.09 12.23,-7.75 42.65,-35.95 5.72,-72.81 4.69,-81.2 -10.49,-7.56 -24.78,-16.15 -42.6,-14.74 -47.46,3.75 -67.12,59.61 -38.3,92.98 20.42,23.64 57.6,8.6 66.57,-17.4 8.66,-25.09 -6.52,-56.13 -52.79,-52.33 10.97,-7.47 28.28,-3.53 38.86,2.1 9.39,5 16.84,14.69 20.11,26.73 8.08,29.72 -10,46.74 -36.25,55.88z"/>
   <path class="fil4" d="M726.35 1648.17l25.16 0c28,0 46.61,-10.62 46.61,-39.16 0,-27.14 -18.15,-39.15 -44.75,-39.15l-27.02 0 0 78.31z"/>
   <path class="fil6" d="M969.36 1185.79l15.47 0 -0.19 -80.41c9.22,5.95 31.44,31.35 41.16,41.03 7.32,7.3 12.92,13.45 20.26,20.76 3.94,3.92 6.38,6.39 10.1,10.43 6.73,7.31 5.9,7.68 13.19,10.79l0 -118.23 -15.44 0.19 0.31 82.09c-6.65,-3.44 -54.59,-55.13 -63.18,-64.49l-20.91 -20.79 -0.77 118.63z"/>
   <path class="fil6" d="M1401.48 1142.89c3.18,-9.57 12.12,-35.37 17.18,-40.93l15.38 40.93 -32.56 0zm-33.08 42.9l15.44 0c11.47,-38.46 10.65,-29.83 56.14,-29.83 1.5,5.37 3.8,10.46 5.94,15.97 6.28,16.16 3.68,13.93 23.07,13.67l-49.41 -118.56c-4.7,4.07 -46.45,105.17 -51.18,118.75z"/>
   <path class="fil6" d="M1313.87 1176.45l-5.21 -12.78c-15.63,6.02 -25.64,13.22 -45.3,4.47 -30.28,-13.47 -32.43,-57.44 -4.47,-77.24 18.57,-13.15 32.75,-4.75 48.99,2.16l5.32 -15.19c-22.63,-8.12 -40.03,-15.15 -63.67,-0.06 -34.69,22.15 -36.77,80.07 2.5,101.59 16.82,9.21 47.96,11.01 61.84,-2.95z"/>
   <path class="fil6" d="M678.08 1176.45l-5.22 -12.78c-15.62,6.02 -25.63,13.22 -45.29,4.47 -30.29,-13.47 -32.43,-57.44 -4.47,-77.24 18.56,-13.15 32.75,-4.75 48.99,2.16l5.32 -15.19c-22.64,-8.12 -40.03,-15.15 -63.67,-0.06 -34.69,22.15 -36.78,80.07 2.5,101.59 16.81,9.21 47.96,11.01 61.84,-2.95z"/>
   <polygon class="fil6" points="743.79,1185.79 817.47,1185.79 817.52,1170.84 766.43,1170.84 759.23,1170.65 759.23,1070.16 743.79,1070.16 "/>
   <path class="fil4" d="M1372.72 1675.59l55.12 0.17c-3.5,-10.76 -8.53,-22.3 -12.76,-33.01 -3.12,-7.88 -10.16,-28.77 -15.17,-34.3l-27.19 67.14z"/>
   <polygon class="fil4" points="835.75,1405.24 890.87,1405.41 862.93,1338.1 "/>
   <polygon class="fil4" points="1465.95,1405.24 1521.07,1405.41 1493.13,1338.1 "/>
   <polygon class="fil6" points="881.76,1185.79 897.2,1185.79 897.2,1070.16 881.76,1070.16 "/>
   <polygon class="fil6" points="1142.79,1185.79 1158.23,1185.79 1158.23,1070.16 1142.79,1070.16 "/>
   <path class="fil7" d="M878.29 277.07c26.25,-9.14 44.33,-26.16 36.25,-55.88 -3.27,-12.04 -10.72,-21.73 -20.11,-26.73 -10.58,-5.63 -27.89,-9.57 -38.86,-2.1 46.27,-3.8 61.45,27.24 52.79,52.33 -8.97,26 -46.15,41.04 -66.57,17.4 -28.82,-33.37 -9.16,-89.23 38.3,-92.98 17.82,-1.41 32.11,7.18 42.6,14.74 -0.22,-3.21 2.25,-3.41 -8.14,-9.57 -11.98,-7.1 -27.2,-9.59 -41.06,-7.53 -19.17,2.85 -33.6,15.44 -40.77,28.27 -12.97,23.18 -13.51,84.47 45.57,82.05z"/>
   <path class="fil8" d="M910.6 295.26c-13.81,-0.04 -40.69,14.01 -72.27,-9.19 -57.87,-42.52 -26.8,-128.29 41.83,-129.19 18.22,-0.24 26.12,7.04 37.66,8.25 -23.25,-12.43 -50.14,-16.49 -76.05,-2.18 -17.87,9.87 -36.4,31.03 -38.49,58.81 -4.15,55.35 53.29,100.43 107.32,73.5z"/>
   <path class="fil4" d="M1401.48 1142.89l32.56 0 -15.38 -40.93c-5.06,5.56 -14,31.36 -17.18,40.93z"/>
   <path class="fil9" d="M923.9 287.32c1.03,8.93 -11.03,24.97 -4.74,51.97 4.07,17.47 16.26,32.32 25.61,39.86 28.14,22.7 71.79,20.89 96.23,-2.06 -6.91,1.09 -15.11,8 -24.06,11.32 -42.24,15.7 -96.11,-14.04 -96.86,-67.76 -0.38,-27.7 9.49,-32.37 18.66,-49.43 -4.69,2.29 -12.19,11.23 -14.84,16.1z"/>
   <path class="fil5" d="M757.52 557.44c6.49,6.13 20.54,-2.82 27.55,0.01 5.69,5.48 5.55,8.55 10.88,13.32 14.78,13.23 31.81,18.99 51.26,23.35l4.49 19.36c3.62,-3.53 1.77,2.12 2.6,-4.06l-2.53 -18.23c-38.09,-11.65 -38.39,-6.46 -64.83,-38.13 -8.92,0.47 -22.07,0.47 -29.42,4.38z"/>
   <path class="fil10" d="M1085.58 547.2l-53.98 3.26 58.91 3.42 1.21 -9.46 -0.2 -3.76c0,-19.14 0.17,-46.05 -3.58,-63.07l-2.36 69.61z"/>
   <path class="fil10" d="M1259.06 777.27c5.68,-13.55 4.48,-37.66 4.48,-54.84 15.32,-4.78 35.64,0.97 49.61,-4.19l-55.64 -3.24 1.55 62.27z"/>
   <path class="fil9" d="M1253.42 552.7c10.97,2.04 49.42,0.09 60.44,-1.85l-40.28 -2.79 -14.56 0.25 -0.02 -30.02 -2.6 -42.34 -2.98 76.75z"/>
   <path class="fil8" d="M1031.51 717.85l49.87 4.27 2.45 57.77c0,-5.88 4.54,-42.44 3.9,-54.64l-0.39 -9.45 -55.83 2.05z"/>
   <path class="fil11" d="M829.87 518.29c7.34,6.34 18.94,-3.66 47.82,8.01 9.23,3.73 10.43,4.42 17.38,10.59 4.36,3.88 9.89,12.45 15.48,14.79 -2.35,-12.52 -17.56,-23.47 -29.53,-28.66 -12.35,-5.34 -38.12,-11.3 -51.15,-4.73z"/>
   <path class="fil6" d="M884.72 1062.65c10.45,0 8.9,0.16 21.9,-12.52 4.17,-4.08 3.53,-3.62 5.74,-8.8l-16.07 0 -11.57 21.32z"/>
   <path class="fil12" d="M840.89 425.08l8.39 1.77c2.19,-5.45 0.03,-4.57 -6.41,-5.1 -3.84,2.2 -0.76,-1.01 -1.98,3.33z"/>
  </g>
 </g>
</svg>
